# xmcd
#
# Track frame offsets: 
#        150
#        16287
#        31629
#        47624
#        64706
#        82618
#        104295
#        117369
#        131014
#        147026
#        162575
#        177609
#        194529
#        211157
#        226933
#        240165
#
# Disc length: 3401 seconds
#
# Revision: 0
# Processed by: cddbd v1.4PL0 Copyright (c) Steve Scherf et al.
# Submitted via: ExactAudioCopy v0.95a3
#
DISCID=c90d4710
DTITLE=Johnny Ferreira and The Swing Machine - Wine, Women and Swing
DYEAR=2002
DGENRE=Swing
TTITLE0=Crazy 'Bout The Saxophone
TTITLE1=Dig That Crazy Chick
TTITLE2=Mexico
TTITLE3=No! I Ain't Gonna Let You Go
TTITLE4=Blue Bop
TTITLE5=Slow And Easy
TTITLE6=Rock On
TTITLE7=Yes Indeed
TTITLE8=Forget About It
TTITLE9=I Like It Like That
TTITLE10=Luscious Lips
TTITLE11=Do Wah Daddy
TTITLE12=Lost In The Sauce
TTITLE13=Let's Rock Tonite
TTITLE14=Rock And Roll "Oh Yeah"
TTITLE15=Wine, Women and Song
EXTD=
EXTT0=
EXTT1=
EXTT2=
EXTT3=
EXTT4=
EXTT5=
EXTT6=
EXTT7=
EXTT8=
EXTT9=
EXTT10=
EXTT11=
EXTT12=
EXTT13=
EXTT14=
EXTT15=
PLAYORDER=
